<?xml version="1.0" encoding="utf-8"?>
<!-- Generator: Adobe Illustrator 15.0.0, SVG Export Plug-In . SVG Version: 6.00 Build 0)  -->
<!DOCTYPE svg PUBLIC "-//W3C//DTD SVG 1.1//EN" "http://www.w3.org/Graphics/SVG/1.1/DTD/svg11.dtd">
<svg xmlns="http://www.w3.org/2000/svg" xmlns:xlink="http://www.w3.org/1999/xlink" version="1.1" id="Layer_1" x="0px" y="0px" width="64px" height="64px" viewBox="0 0 64 64" style="enable-background:new 0 0 64 64;" xml:space="preserve">

<g>
	<defs>
		<path id="5772181556_SVGID_1__grid" d="M60,48c0,1.7-1.298,3-3,3H7c-1.701,0-3-1.3-3-3V17c0-1.701,1.299-3,3-3h50c1.702,0,3,1.299,3,3V48z"/>
	</defs>
	<use xlink:href="#5772181556_SVGID_1__grid" class="stshockcolor" style="fill:#75A2D8;;overflow:visible;"/>
	<clipPath id="5772181556_SVGID_2__grid">
		<use xlink:href="#5772181556_SVGID_1__grid" style="overflow:visible;"/>
	</clipPath>
	<g class="st1" style="clip-path:url(#5772181556_SVGID_2__grid);;">
		<polygon class="st4" points="60,51 60,14 38.333,14 16.972,51   " style="opacity:0.3;fill:#231F20;;"/>
		<polygon class="st5" points="52.526,31 58.886,24 50.395,24 48.281,26.326 46.168,24 28.661,24.002 27.009,27.872 25.211,24.002     18,24.002 18,26.041 17.147,24.002 10.947,24.002 4.955,38 11.916,38 12.748,36 15.241,36 16.064,38 24.404,38 24.404,37.542     24.608,38 29.319,38 29.53,37.527 29.531,38 46.167,38 48.281,35.673 50.396,38 58.887,38   " style="fill:#DEDCD9;;"/>
		<g>
			<path class="stshockcolor" d="M27.087,32.785l-3.152-6.782H20V36l-4.184-9.998h-3.549L7.987,36h2.595l0.832-2h5.167l0.823,2h5v-7.836     L25.905,36h2.117l3.496-7.83l0.01,7.83H34v-9.998h-4.018L27.087,32.785z M13.984,27.702L15.748,32H12.23L13.984,27.702z      M54.367,36l-4.543-5l4.542-5h-3.087l-2.998,3.3L45.283,26h-3.087H36v10h6.195h3.087l2.999-3.301L51.28,36H54.367z M44.012,34     h-5.47v-2H44v-2h-5.458v-2h5.471l2.726,3L44.012,34z" style="fill:#75A2D8;;"/>
			<g class="st2" style="opacity:0.3;;">
				<path class="st0" d="M27.087,32.785l-3.152-6.782H20V36l-4.184-9.998h-3.549L7.987,36h2.595l0.832-2h5.167l0.823,2h5v-7.836      L25.905,36h2.117l3.496-7.83l0.01,7.83H34v-9.998h-4.018L27.087,32.785z M13.984,27.702L15.748,32H12.23L13.984,27.702z       M54.367,36l-4.543-5l4.542-5h-3.087l-2.998,3.3L45.283,26h-3.087H36v10h6.195h3.087l2.999-3.301L51.28,36H54.367z M44.012,34      h-5.47v-2H44v-2h-5.458v-2h5.471l2.726,3L44.012,34z" style="fill:#231F20;;"/>
			</g>
		</g>
	</g>
</g>
</svg>
