<svg xmlns="http://www.w3.org/2000/svg" xmlns:xlink="http://www.w3.org/1999/xlink" viewBox="0 0 86.95 65.33"><defs><style>.cls-1{fill:url(#Áåçûìÿííûé_ãðàäèåíò_9);}</style><linearGradient id="Áåçûìÿííûé_ãðàäèåíò_9" x1="43.48" y1="4.08" x2="43.48" y2="63.67" gradientUnits="userSpaceOnUse"><stop offset="0" stop-color="#ffc45b"/><stop offset="0.16" stop-color="#f2b55d"/><stop offset="0.43" stop-color="#e3a261"/><stop offset="0.71" stop-color="#d99762"/><stop offset="1" stop-color="#d69363"/></linearGradient></defs><g id="Layer_2" data-name="Layer 2"><g id="Ñëîé_1" data-name="Ñëîé 1"><rect class="cls-1" x="0.87" y="0.87" width="85.21" height="63.58" rx="13.26"/><path d="M72.82,65.33H14.13A14.15,14.15,0,0,1,0,51.2V14.13A14.15,14.15,0,0,1,14.13,0H72.82A14.15,14.15,0,0,1,87,14.13V51.2A14.15,14.15,0,0,1,72.82,65.33ZM14.13,1.74A12.41,12.41,0,0,0,1.74,14.13V51.2A12.4,12.4,0,0,0,14.13,63.58H72.82A12.4,12.4,0,0,0,85.21,51.2V14.13A12.41,12.41,0,0,0,72.82,1.74Z"/><path d="M41.12,23.8H.87a.87.87,0,0,1,0-1.74H41.12a1.49,1.49,0,0,0,1.48-1.49V15.33a.88.88,0,1,1,1.75,0v5.24A3.23,3.23,0,0,1,41.12,23.8Z"/><path d="M86.08,43.27H.87a.87.87,0,0,1,0-1.74H86.08a.87.87,0,0,1,0,1.74Z"/><path d="M43.48,16.2a.88.88,0,0,1-.59-.23L27.05,1.52A.88.88,0,0,1,27,.28.87.87,0,0,1,28.23.23L43.48,14.15,58.72.23A.88.88,0,0,1,60,.28a.88.88,0,0,1-.06,1.24L44.06,16A.85.85,0,0,1,43.48,16.2Z"/><path d="M43.48,50.87A.87.87,0,0,1,42.6,50V42.4a.88.88,0,0,1,1.75,0V50A.87.87,0,0,1,43.48,50.87Z"/><path d="M59.31,65.33a.89.89,0,0,1-.59-.23L43.48,51.18,28.23,65.1a.87.87,0,0,1-1.18-1.29L42.89,49.36a.85.85,0,0,1,1.17,0L59.9,63.81A.87.87,0,0,1,60,65,.89.89,0,0,1,59.31,65.33Z"/><path d="M32.65,43.27a.87.87,0,0,1-.87-.87V22.93a.87.87,0,1,1,1.74,0V42.4A.87.87,0,0,1,32.65,43.27Z"/><path d="M54.31,43.27a.87.87,0,0,1-.88-.87V25.28a3.23,3.23,0,0,1,3.23-3.22H86.08a.87.87,0,1,1,0,1.74H56.66a1.48,1.48,0,0,0-1.48,1.48V42.4A.87.87,0,0,1,54.31,43.27Z"/></g></g></svg>