<?xml version="1.0" encoding="utf-8"?>
<!-- Generator: Adobe Illustrator 15.0.0, SVG Export Plug-In . SVG Version: 6.00 Build 0)  -->
<!DOCTYPE svg PUBLIC "-//W3C//DTD SVG 1.1//EN" "http://www.w3.org/Graphics/SVG/1.1/DTD/svg11.dtd">
<svg xmlns="http://www.w3.org/2000/svg" xmlns:xlink="http://www.w3.org/1999/xlink" version="1.1" id="Layer_1" x="0px" y="0px" width="64px" height="64px" viewBox="0 0 64 64" style="enable-background:new 0 0 64 64;" xml:space="preserve">

<g>
	<defs>
		<path id="5772181596_SVGID_1__grid" d="M60,47c0,1.657-1.343,3-3,3H7c-1.657,0-3-1.343-3-3V16c0-1.657,1.343-3,3-3h50c1.657,0,3,1.343,3,3V47z"/>
	</defs>
	<use xlink:href="#5772181596_SVGID_1__grid" class="stshockcolor" style="fill:#DE7047;;overflow:visible;"/>
	<clipPath id="5772181596_SVGID_2__grid">
		<use xlink:href="#5772181596_SVGID_1__grid" style="overflow:visible;"/>
	</clipPath>
	<g class="st1" style="clip-path:url(#5772181596_SVGID_2__grid);;">
		<rect x="36" y="13" class="st0" width="8" height="37" style="fill:#F7D11A;;"/>
		<rect x="4" y="22" class="st0" width="56" height="8" style="fill:#F7D11A;;"/>
		<polygon class="st4" points="60,26.808 60,50 34.386,50 24.531,32.934 55.742,19.433   " style="opacity:0.2;;"/>
	</g>
</g>
<polygon class="st0" points="31.305,44.665 28.995,40.667 24.377,40.667 33.071,25.437 40,29.437 " style="fill:#F7D11A;;"/>
<g>
	<polygon class="st0" points="48.695,44.665 51.005,40.667 55.623,40.667 46.929,25.437 40,29.437  " style="fill:#F7D11A;;"/>
	<polygon class="st5 stshockcolor" points="48.695,44.665 51.005,40.667 55.623,40.667 46.929,25.437 40,29.437  " style="fill:#DE7047;;opacity:0.15;;"/>
</g>
<g>
	<defs>
		<path id="5772181596_SVGID_3__grid" d="M40,29.437l-8.342,4.815c-1.79,1.035-3.93,0.96-5.602-0.003c-1.781-1.038-2.782-2.912-2.782-4.834    c0-1.603,0-5.466,0-6.831c0-1.922,0.996-3.793,2.777-4.831c1.672-0.963,3.817-1.042,5.607-0.006L40,22.562V29.437z"/>
	</defs>
	<use xlink:href="#5772181596_SVGID_3__grid" style="overflow:visible;fill:#F7D11A;"/>
	<clipPath id="5772181596_SVGID_4__grid">
		<use xlink:href="#5772181596_SVGID_3__grid" style="overflow:visible;"/>
	</clipPath>
	<g class="st2" style="clip-path:url(#5772181596_SVGID_4__grid);;">
		<rect x="22" y="15" class="st5 stshockcolor" width="18" height="22" style="fill:#DE7047;;opacity:0.15;;"/>
		<path class="st4" d="M40,36.312l-8.342,4.815c-1.79,1.035-3.93,0.96-5.602-0.003c-1.781-1.038-2.782-2.912-2.782-4.834    c0-1.603,0-5.466,0-6.831c0-1.922,0.996-3.793,2.777-4.831c1.672-0.963,3.817-1.042,5.607-0.006L40,29.437V36.312z" style="opacity:0.2;;"/>
	</g>
</g>
<g>
	<defs>
		<path id="5772181596_SVGID_5__grid" d="M40,29.437l8.342,4.815c1.79,1.035,3.93,0.96,5.603-0.003c1.78-1.038,2.781-2.912,2.781-4.834    c0-1.603,0-5.466,0-6.831c0-1.922-0.996-3.793-2.776-4.831c-1.673-0.963-3.817-1.042-5.607-0.006L40,22.562V29.437z"/>
	</defs>
	<use xlink:href="#5772181596_SVGID_5__grid" style="overflow:visible;fill:#F7D11A;"/>
	<clipPath id="5772181596_SVGID_6__grid">
		<use xlink:href="#5772181596_SVGID_5__grid" style="overflow:visible;"/>
	</clipPath>
	<g class="st3" style="clip-path:url(#5772181596_SVGID_6__grid);;">
		<path class="st4" d="M40,36.312l8.342,4.815c1.79,1.035,3.93,0.96,5.603-0.003c1.78-1.038,2.781-2.912,2.781-4.834    c0-1.603,0-5.466,0-6.831c0-1.922-0.996-3.793-2.776-4.831c-1.673-0.963-3.817-1.042-5.607-0.006L40,29.437V36.312z" style="opacity:0.2;;"/>
	</g>
</g>
</svg>
