<?xml version="1.0" encoding="utf-8"?>
<!-- Generator: Adobe Illustrator 15.0.0, SVG Export Plug-In . SVG Version: 6.00 Build 0)  -->
<!DOCTYPE svg PUBLIC "-//W3C//DTD SVG 1.1//EN" "http://www.w3.org/Graphics/SVG/1.1/DTD/svg11.dtd">
<svg xmlns="http://www.w3.org/2000/svg" xmlns:xlink="http://www.w3.org/1999/xlink" version="1.1" id="Layer_1" x="0px" y="0px" width="64px" height="64px" viewBox="0 0 64 64" style="enable-background:new 0 0 64 64;" xml:space="preserve">

<g>
	<defs>
		<path id="5772181614_SVGID_1__grid" d="M60,47c0,1.7-1.298,3-3,3H7c-1.701,0-3-1.3-3-3V17c0-1.701,1.299-3,3-3h50c1.702,0,3,1.299,3,3V47z"/>
	</defs>
	<use xlink:href="#5772181614_SVGID_1__grid" style="overflow:visible;fill:#DEDCD9;"/>
	<clipPath id="5772181614_SVGID_2__grid">
		<use xlink:href="#5772181614_SVGID_1__grid" style="overflow:visible;"/>
	</clipPath>
	<g class="st3" style="clip-path:url(#5772181614_SVGID_2__grid);;">
		<polygon class="st1" points="17.485,50 4,50 4,14 38.27,14   " style="opacity:0.3;fill:#FFFFFF;;"/>
		<polygon class="st0" points="60,50 28.076,50 25.761,45.991 47.852,18.015 60,39.057   " style="opacity:0.15;fill:#231F20;;"/>
		<path class="stshockcolor" d="M28.549,19.931c0,0,2.858,17.228,2.829,17.228c0.029,0,7.624-19.13,7.606-19.146l8.868,0.003    c0.08,0.016-12.462,27.989-12.546,27.977c0.032,0.012-9.587,0.01-9.544-0.001L19.861,18L28.549,19.931z" style="fill:#5E749B;;"/>
		<path class="st2" d="M24.543,22.667c-2.867-2.476-5.325-3.375-8.537-3.667c-0.027-0.138,0.041-0.974,0.017-0.993L26.618,18    c0.965,0,1.63,0.12,1.931,1.931c0.3,1.811,1.674,10.121,1.674,10.121S27.955,25.613,24.543,22.667z" style="fill:#EABE53;;"/>
	</g>
</g>
</svg>
